<?xml version="1.0" encoding="UTF-8" standalone="no"?>
<svg
   version="1.1"
   x="0px"
   y="0px"
   width="855"
   height="1000"
   viewBox="0 0 855 1000"
   enable-background="new 0 0 855 1000"
   xml:space="preserve"
   xmlns="http://www.w3.org/2000/svg"
   xmlns:svg="http://www.w3.org/2000/svg"><defs
   id="l_b" />
<g
   id="declogo"
   style="mix-blend-mode:normal">
	
	<polygon
   fill="#000000"
   points="393.392,1000 58.245,502.385 104.215,847.435 "
   id="lface"
   style="display:inline" />
	<polygon
   fill="#000000"
   points="753.644,844.775 799.613,499.707 464.468,997.285 "
   id="rface"
   style="display:inline" />
	<path
   fill="#000000"
   d="M 428.911,381.126 399.975,273.397 h 57.908 z m 35.705,-189.88 H 390.564 L 278.8,6.741 l 71.373,418.831 76.729,91.587 h 1.378 L 505.008,425.572 576.382,6.741 Z"
   id="crown"
   style="display:inline" />
	<path
   fill="#000000"
   d="m 324.25,421.853 0.26,-0.186 -0.335,-0.14 z m 206.421,-0.186 0.262,0.186 0.073,-0.325 z M 304.203,331.288 h 0.186 l -0.224,-0.074 z m 246.626,0 h 0.188 l 0.036,-0.093 z m -399.119,134.648 0.968,-2.668 244.174,93.392 -49.431,114.033 z m 306.658,90.723 244.172,-93.392 0.931,2.668 -195.747,204.757 z M 760.896,156.221 575.042,223.522 551.053,331.196 731.291,265.717 v 17.108 l -184.849,67.654 0.297,-0.037 -15.733,71.085 200.285,-74.554 v 17.1 L 526.32,440.84 h 0.26 l -98.747,102.337 h -0.409 L 328.603,440.84 h 0.334 L 123.89,364.073 v -17.1 l 200.285,74.554 -15.732,-71.085 0.298,0.037 L 123.89,282.825 V 265.717 L 304.165,331.214 280.138,223.522 94.285,156.221 0,0 58.468,448.111 427.572,999.293 796.751,448.111 855,0 Z"
   id="fill" />
</g>
</svg>
